<?xml version="1.0" encoding="UTF-8"?>
<svg version="1.1" xmlns="http://www.w3.org/2000/svg" width="1280" height="1280">
<path d="M0 0 C422.4 0 844.8 0 1280 0 C1280 422.4 1280 844.8 1280 1280 C857.6 1280 435.2 1280 0 1280 C0 857.6 0 435.2 0 0 Z " fill="#888888" transform="translate(0,0)"/>
<path d="M0 0 C422.4 0 844.8 0 1280 0 C1280 422.4 1280 844.8 1280 1280 C857.6 1280 435.2 1280 0 1280 C0 857.6 0 435.2 0 0 Z M810 122 C809.10490723 122.34047363 808.20981445 122.68094727 807.28759766 123.03173828 C794.0076672 128.14553052 781.429863 134.08693211 769 141 C768.18241211 141.44682129 767.36482422 141.89364258 766.52246094 142.35400391 C751.78954623 150.41417627 737.83154169 159.4864335 724 169 C723.29762207 169.48210937 722.59524414 169.96421875 721.87158203 170.4609375 C713.78542051 176.04197447 706.02013092 182.01686953 698.30126953 188.09228516 C694.91214467 190.75772635 691.52074062 193.35303248 687.96484375 195.79296875 C686.49724609 196.88544922 686.49724609 196.88544922 685 198 C685 198.66 685 199.32 685 200 C684.43925781 200.25265625 683.87851562 200.5053125 683.30078125 200.765625 C673.95679746 205.7786961 666.12350252 214.52905198 658.4609375 221.7578125 C655.26284623 224.76990815 651.98314541 227.67081259 648.65234375 230.53515625 C645.97861087 232.90548682 643.49459754 235.44303752 641 238 C636.663068 236.60571103 634.3026632 234.59877071 631.1875 231.3125 C626.95818661 226.9589777 622.62126496 222.92768556 618 219 C616.9252178 218.07356995 615.85105226 217.14642423 614.77734375 216.21875 C607.60826935 210.03349137 600.38338752 203.92923908 593 198 C592.49065918 197.58959473 591.98131836 197.17918945 591.45654297 196.75634766 C576.88015362 185.04152674 561.68745807 174.17408434 546 164 C545.29327148 163.53770996 544.58654297 163.07541992 543.85839844 162.59912109 C520.65342369 147.45774868 495.89096578 133.97602934 470 124 C469.03707031 123.61448975 469.03707031 123.61448975 468.0546875 123.22119141 C450.7887977 116.32660768 432.53419691 110.99878594 414 109 C413.03835938 108.89042969 412.07671875 108.78085938 411.0859375 108.66796875 C380.52730003 105.64435686 350.62649288 110.78836851 326 130 C303.71572448 148.3905177 290.4031419 173.60462834 282.54980469 201.09130859 C282.03583186 202.87560681 281.4916699 204.65113149 280.9453125 206.42578125 C277.67893491 217.60489526 276.05629521 229.0754948 274.47387695 240.59570312 C274.15890423 242.85844379 273.81900326 245.11785916 273.45385742 247.37304688 C271.41807342 261.05585557 271.56303048 274.81784787 271.5625 288.625 C271.56091196 289.62288355 271.56091196 289.62288355 271.55929184 290.64092636 C271.53104803 309.4615909 272.15486762 328.09540876 274.3125 346.8125 C274.47239914 348.20036713 274.47239914 348.20036713 274.63552856 349.61627197 C275.82951181 359.69610438 277.38267555 369.67066462 279.34057617 379.62988281 C279.94638678 382.72599892 280.49068837 385.82425884 281 388.9375 C281.81558792 393.89899317 282.64560639 398.85755104 283.5 403.8125 C283.61859375 404.51818115 283.7371875 405.2238623 283.859375 405.95092773 C284.63260196 410.40171036 285.71250945 414.66318974 287 419 C287.32910937 420.39201076 287.64409287 421.78752886 287.9375 423.1875 C289.15672106 428.82517818 290.58117086 434.4098132 292 440 C291.11948975 440.15021606 291.11948975 440.15021606 290.22119141 440.3034668 C283.37343442 441.56136853 276.94718718 443.53934887 270.375 445.8125 C268.25564309 446.5338307 266.13584989 447.25388082 264.015625 447.97265625 C262.99017578 448.32086426 261.96472656 448.66907227 260.90820312 449.02783203 C255.84726636 450.71962604 250.74392365 452.26468508 245.6328125 453.796875 C241.93554216 455.02134733 238.3604563 456.42629755 234.75439453 457.89306641 C231.85768283 459.0571943 228.94416646 460.16711518 226.0234375 461.26953125 C199.29846255 471.44105227 173.58054049 483.34218545 149 498 C148.19433594 498.4738916 147.38867188 498.9477832 146.55859375 499.43603516 C131.20277056 508.47687093 116.56877204 518.4249277 103 530 C101.8689419 530.94585364 100.73740358 531.89113324 99.60546875 532.8359375 C88.30960058 542.31997181 78.08670935 552.3286989 69 564 C67.87271484 565.41925781 67.87271484 565.41925781 66.72265625 566.8671875 C46.94893173 592.35332132 37.60770178 620.76785675 40 653 C41.89160007 666.24716768 46.38175861 678.59764602 52.9765625 690.19433594 C53.99528468 691.9916807 54.96940088 693.80778825 55.9375 695.6328125 C63.11016145 708.93790888 72.54410015 720.15883563 83 731 C83.66596191 731.69319336 84.33192383 732.38638672 85.01806641 733.10058594 C94.46957081 742.88730988 104.00997923 751.97829841 115 760 C116.40001145 761.04390632 117.7997371 762.08819602 119.19921875 763.1328125 C134.71968926 774.61864365 150.99925666 784.85477255 168 794 C168.86109375 794.4640625 169.7221875 794.928125 170.609375 795.40625 C183.10393691 802.1072441 195.71831439 808.35094882 208.72021484 814.00488281 C211.49784472 815.21730725 214.2622358 816.45796981 217.0246582 817.70458984 C230.60388225 823.70239083 244.57030615 828.62434651 258.61132812 833.41479492 C260.89564317 834.19454655 263.1783497 834.97888023 265.4609375 835.76367188 C277.98161528 840.75549725 277.98161528 840.75549725 291 843 C290.84966309 843.59498291 290.69932617 844.18996582 290.54443359 844.80297852 C283.07771372 874.57673566 277.94075491 904.33497614 274.26849365 934.77575684 C274.08665082 936.28217112 273.90354825 937.78843378 273.71929932 939.29455566 C272.2436822 951.11939416 272.2436822 951.11939416 271.375 963 C271.33777832 963.78995361 271.30055664 964.57990723 271.26220703 965.39379883 C270.92211898 973.82155677 270.89336242 982.25414289 270.875 990.6875 C270.87232117 991.37030029 270.86964233 992.05310059 270.86688232 992.7565918 C270.8206562 1008.29043879 271.66979356 1023.5621943 273.99194336 1038.92993164 C274.31278628 1041.06440451 274.61699585 1043.20080977 274.91992188 1045.33789062 C276.33894789 1055.07379432 278.43766402 1064.50420847 281 1074 C281.25386475 1074.95285889 281.50772949 1075.90571777 281.76928711 1076.88745117 C284.83593422 1088.1361784 288.57414038 1098.67670284 294 1109 C294.33902344 1109.65452148 294.67804688 1110.30904297 295.02734375 1110.98339844 C308.97502416 1137.66536215 329.67546281 1158.81051316 358.85546875 1168.31640625 C400.65265774 1180.25216833 444.01838743 1169.22902518 483 1153 C484.22589844 1152.49581543 484.22589844 1152.49581543 485.4765625 1151.98144531 C495.24797358 1147.93101074 504.66319598 1143.22013617 514.0625 1138.375 C515.10994385 1137.83641357 516.1573877 1137.29782715 517.23657227 1136.74291992 C522.6670674 1133.90264093 527.81257107 1130.89046781 532.859375 1127.41625977 C534.98960736 1126.00687588 537.15422114 1124.77729536 539.40234375 1123.56640625 C544.68666638 1120.69123092 549.60916841 1117.34395562 554.5625 1113.9375 C555.52269043 1113.27991699 556.48288086 1112.62233398 557.47216797 1111.94482422 C565.22868862 1106.60017951 572.79665951 1101.04181629 580.27294922 1095.31396484 C582.88824289 1093.32421215 585.54173703 1091.3864649 588.1875 1089.4375 C594.10288752 1084.99896361 599.72453959 1080.26179663 605.32470703 1075.43701172 C606.99852734 1074.0012632 608.68311911 1072.57922411 610.37109375 1071.16015625 C620.60957492 1062.52139219 630.55894921 1053.50875411 640 1044 C643.11159151 1045.3905328 645.30433009 1047.02337417 647.7578125 1049.37890625 C648.46083496 1050.04849365 649.16385742 1050.71808105 649.88818359 1051.40795898 C650.99540771 1052.47445679 650.99540771 1052.47445679 652.125 1053.5625 C653.6607875 1055.02414268 655.19724187 1056.48508501 656.734375 1057.9453125 C657.47236328 1058.64817383 658.21035156 1059.35103516 658.97070312 1060.07519531 C665.39151461 1066.16538754 672.03547269 1071.94406044 678.91796875 1077.5078125 C681.13919369 1079.30393609 683.34900377 1081.11008536 685.55078125 1082.9296875 C708.03551476 1101.45957357 731.71292274 1118.48191169 757 1133 C757.61149902 1133.35578125 758.22299805 1133.7115625 758.85302734 1134.078125 C774.72005016 1143.30040073 791.06441952 1151.99526291 808.4375 1158 C812.66666619 1159.46968309 816.8880783 1160.94634871 821.07421875 1162.53515625 C849.29080625 1173.15827811 882.51797433 1177.65263106 912 1170 C912.99515625 1169.77183594 913.9903125 1169.54367187 915.015625 1169.30859375 C941.63492069 1162.80248098 962.2766333 1144.3247871 976.5 1121.5625 C985.52481129 1106.67760512 992.12349534 1090.68353508 997 1074 C997.22139648 1073.24879883 997.44279297 1072.49759766 997.67089844 1071.72363281 C1001.98351407 1056.74663432 1004.13036688 1041.4476567 1006 1026 C1006.0876059 1025.30749146 1006.17521179 1024.61498291 1006.26547241 1023.90148926 C1007.91573348 1010.71762958 1008.43803173 997.65639403 1008.4375 984.375 C1008.43923218 983.33328644 1008.44096436 982.29157288 1008.44274902 981.21829224 C1008.43087479 964.6929591 1007.47274843 948.37004308 1005.75 931.9375 C1005.64767059 930.95311951 1005.54534119 929.96873901 1005.43991089 928.95452881 C1003.20185298 907.91126389 999.56903383 887.11139717 995.39013672 866.37426758 C994.86166946 863.7462074 994.34274963 861.116365 993.82421875 858.48632812 C993.48493291 856.78895088 993.14511112 855.09168066 992.8046875 853.39453125 C992.65256805 852.62067581 992.50044861 851.84682037 992.34371948 851.04951477 C991.55708037 847.18333997 990.61854218 843.60363917 989 840 C989.94617188 839.78085937 990.89234375 839.56171875 991.8671875 839.3359375 C1002.47078789 836.81890752 1012.7209896 833.60692329 1023 830 C1023.83241211 829.71141113 1024.66482422 829.42282227 1025.52246094 829.12548828 C1076.90920001 811.24553334 1129.00219538 787.15471185 1171 752 C1172.51980469 750.73929688 1172.51980469 750.73929688 1174.0703125 749.453125 C1189.44792301 736.65409059 1189.44792301 736.65409059 1203 722 C1203.83015625 720.99582031 1204.6603125 719.99164062 1205.515625 718.95703125 C1226.72102136 692.945379 1240.53480475 663.1945161 1238 629 C1235.15479765 604.61515675 1224.33378347 583.80650636 1209 565 C1207.95779297 563.65228516 1207.95779297 563.65228516 1206.89453125 562.27734375 C1197.40635105 550.19014984 1186.20745908 539.31407996 1174 530 C1173.40074707 529.54028809 1172.80149414 529.08057617 1172.18408203 528.60693359 C1145.18334953 507.93796361 1116.23513796 490.95796359 1085.4375 476.5625 C1084.51834808 476.13158051 1084.51834808 476.13158051 1083.58062744 475.69195557 C1074.50854346 471.45359658 1065.3189189 467.65153483 1056 464 C1054.39516781 463.3558222 1052.79082316 462.71042457 1051.1875 462.0625 C1050.39730469 461.74925781 1049.60710938 461.43601562 1048.79296875 461.11328125 C1046.6237063 460.2486102 1044.46088351 459.3677758 1042.30078125 458.48046875 C1030.1612642 453.56226254 1017.75907121 449.70588929 1005.21240234 445.96728516 C1000.66068117 444.59671826 996.12676838 443.16974588 991.59301758 441.7409668 C989.12896339 440.90841433 989.12896339 440.90841433 987 441 C987.13575439 440.44763672 987.27150879 439.89527344 987.41137695 439.32617188 C988.04951919 436.71851153 988.68099049 434.10927425 989.3125 431.5 C989.52583984 430.63246094 989.73917969 429.76492188 989.95898438 428.87109375 C991.94382263 420.63549622 993.49077287 412.33232024 995 404 C995.2503804 402.63150557 995.50078719 401.26301596 995.7512207 399.89453125 C1006.54144348 340.61047025 1013.47306126 274.15299497 998 215 C997.67308833 213.637362 997.3490512 212.2740323 997.02734375 210.91015625 C996.68531641 209.48167007 996.34287312 208.05328341 996 206.625 C995.7690564 205.64285522 995.7690564 205.64285522 995.53344727 204.64086914 C994.43979473 200.19538984 992.8417464 196.18229912 991 192 C990.32240886 189.96193291 989.65607094 187.92009612 989 185.875 C978.54545357 156.53985479 959.64142618 132.18859452 932.1875 117.1875 C919.12205382 111.18090226 905.32268742 107.78345745 891 107 C890.33887207 106.96148926 889.67774414 106.92297852 888.99658203 106.88330078 C861.79724709 105.54366189 835.20836231 112.41011954 810 122 Z " fill="#000000" transform="translate(0,0)"/>
<path d="M0 0 C4.61153528 0.00569677 9.22301279 0.002314 13.83454609 -0.00345039 C31.31578324 -0.02187151 48.76945423 0.02124477 66.23747253 0.77630615 C72.12902542 1.02898907 77.98927216 1.15453672 83.88594055 1.09655762 C110.83935732 0.88084324 110.83935732 0.88084324 118.60351562 6.25146484 C123.53597237 11.51644677 126.47588021 17.62155431 129.25439453 24.22167969 C131.06960884 28.33786988 133.48579773 31.88137219 136.03710938 35.56787109 C136.92182025 36.92608688 137.80059909 38.28818255 138.67382812 39.65380859 C139.12806152 40.3624707 139.58229492 41.07113281 140.05029297 41.80126953 C150.06584284 57.49065308 159.69796913 73.36258303 169.00146484 89.48388672 C170.34374714 91.79713633 171.70090191 94.09991305 173.07226562 96.39599609 C180.56812979 108.94648912 187.57382057 121.76659148 194.59472656 134.58642578 C196.37460542 137.83594148 198.16227352 141.08112342 199.95117188 144.32568359 C205.03251938 153.56170583 210.01938552 162.82155831 214.63867188 172.29833984 C215.99057695 175.06464508 217.41228523 177.78328747 218.87304688 180.49365234 C219.25557617 181.21697754 219.63810547 181.94030273 220.03222656 182.68554688 C220.76606308 184.07044924 221.51342492 185.44829929 222.27636719 186.81738281 C223.7774191 189.6866042 224.6939569 191.44613693 223.95507812 194.66943359 C223.48714844 195.48154297 223.01921875 196.29365234 222.53710938 197.13037109 C222.04597656 198.14486328 221.55484375 199.15935547 221.04882812 200.20458984 C220.44285514 201.41007482 219.83460848 202.61441841 219.22460938 203.81787109 C218.50422098 205.24608692 217.78419543 206.67448581 217.06445312 208.10302734 C216.66468262 208.89596191 216.26491211 209.68889648 215.85302734 210.50585938 C214.40453094 213.39479005 212.97196488 216.29130391 211.54101562 219.18896484 C205.02046949 232.36720622 198.28347178 245.38265735 191.14111328 258.234375 C189.43106718 261.32182811 187.7392422 264.41884807 186.04882812 267.51708984 C178.85206049 280.65500659 171.37459593 293.5625062 163.52270508 306.31640625 C159.66843013 312.5795446 155.92992755 318.88856459 152.3021698 325.28425598 C149.93001084 329.46149735 147.48579337 333.57485138 144.91210938 337.63037109 C144.50806885 338.27143799 144.10402832 338.91250488 143.68774414 339.57299805 C142.79772314 340.9832064 141.90614853 342.39243519 141.01318359 343.80078125 C139.37206233 346.39085388 137.73798549 348.98531518 136.10351562 351.57958984 C118.9907505 378.67672997 118.9907505 378.67672997 114.53710938 383.13037109 C111.60303558 383.5203187 108.74741044 383.78570824 105.79833984 383.97094727 C104.42576963 384.06552814 104.42576963 384.06552814 103.02547073 384.16201973 C99.94412195 384.36710134 96.86207616 384.55357056 93.77929688 384.73583984 C92.70353268 384.80126669 91.62776848 384.86669353 90.51940536 384.93410301 C62.91081686 386.57394931 35.30804052 386.54724037 7.66082764 386.45294189 C3.65405202 386.4428508 -0.3525954 386.44205979 -4.359375 386.44604492 C-30.45484675 386.47114467 -56.52475899 386.4102095 -82.59570312 385.17333984 C-83.96510859 385.10886374 -83.96510859 385.10886374 -85.3621788 385.0430851 C-87.87943315 384.92085028 -90.39604501 384.79039843 -92.91259766 384.65454102 C-93.6433765 384.61693602 -94.37415535 384.57933102 -95.12707901 384.54058647 C-98.12130004 384.36541855 -100.60029401 384.08456997 -103.46289062 383.13037109 C-104.85058594 381.45410156 -104.85058594 381.45410156 -106.29101562 379.24755859 C-106.83588623 378.42167236 -107.38075684 377.59578613 -107.94213867 376.74487305 C-108.52648682 375.8408374 -109.11083496 374.93680176 -109.71289062 374.00537109 C-110.32624268 373.06975342 -110.93959473 372.13413574 -111.5715332 371.17016602 C-112.87626184 369.17760679 -114.17734496 367.18265654 -115.47509766 365.18554688 C-117.41736433 362.20034359 -119.3735064 359.2247322 -121.33398438 356.25146484 C-128.94712661 344.6821313 -136.33969622 333.00695886 -143.46289062 321.13037109 C-144.05634277 320.14182129 -144.64979492 319.15327148 -145.26123047 318.13476562 C-147.87858008 313.77383917 -150.49525339 309.41251837 -153.10717773 305.04833984 C-156.8982192 298.71772557 -160.72134252 292.41311652 -164.65429688 286.16943359 C-167.39475931 281.56450968 -169.91895934 276.84604292 -172.46289062 272.13037109 C-173.01146729 271.11539551 -173.56004395 270.10041992 -174.12524414 269.0546875 C-182.84203275 252.89849569 -191.42969913 236.68095512 -199.80517578 220.34472656 C-201.4580603 217.13973724 -203.13629261 213.94902922 -204.81835938 210.75927734 C-205.84640017 208.77917033 -206.87377836 206.79871912 -207.90039062 204.81787109 C-208.37959961 203.92277832 -208.85880859 203.02768555 -209.35253906 202.10546875 C-209.77954102 201.27192871 -210.20654297 200.43838867 -210.64648438 199.57958984 C-211.02345459 198.8611792 -211.4004248 198.14276855 -211.78881836 197.40258789 C-213.5042987 191.61990933 -210.43413932 186.50662033 -207.84960938 181.44287109 C-207.48403427 180.71182159 -207.11845917 179.98077209 -206.74180603 179.22756958 C-205.5531459 176.85745835 -204.35237913 174.49374723 -203.15039062 172.13037109 C-202.323177 170.49100042 -201.49619257 168.85151407 -200.66943359 167.21191406 C-194.948902 155.90183933 -189.03507736 144.71357043 -182.85742188 133.64599609 C-181.40486438 131.02569631 -179.97770796 128.39287207 -178.55664062 125.75537109 C-171.65407678 112.95373494 -164.43700827 100.35964315 -157.05126953 87.83105469 C-155.6524357 85.45265017 -154.26356099 83.06895692 -152.88085938 80.68115234 C-140.53397962 59.40765827 -127.26933086 38.61881236 -113.50976562 18.23193359 C-111.43019133 15.29178735 -111.43019133 15.29178735 -110.32885742 12.40722656 C-106.79839241 5.02375875 -106.79839241 5.02375875 -102.65716553 3.43963623 C-97.10947368 2.1980876 -91.4361659 2.15376704 -85.77539062 2.00537109 C-84.11694608 1.92422595 -82.45872758 1.83831553 -80.80078125 1.74755859 C-76.33338681 1.5174501 -71.86617494 1.36615294 -67.39508057 1.2288208 C-64.38309452 1.1276919 -61.37340784 0.9980386 -58.36279297 0.86230469 C-38.90857836 0.01830803 -19.46880076 -0.02425511 0 0 Z " fill="#000000" transform="translate(633.462890625,446.86962890625)"/>
<path d="M0 0 C2.96194122 1.72998337 3.12332977 4.3083329 4.015625 7.53125 C4.43439683 8.98229184 4.85510759 10.43277495 5.27734375 11.8828125 C5.62418213 13.09759277 5.62418213 13.09759277 5.97802734 14.33691406 C7.50339471 19.5551268 9.17400449 24.72773372 10.828125 29.90625 C11.15651367 30.95103516 11.48490234 31.99582031 11.82324219 33.07226562 C13.61078556 38.69740212 15.5596655 44.19401494 17.79907227 49.65478516 C19.36116277 53.49549973 20.7786518 57.38785336 22.203125 61.28125 C22.65534424 62.51004883 22.65534424 62.51004883 23.11669922 63.76367188 C24.48664211 67.49550993 25.84354482 71.23062007 27.15234375 74.984375 C27.56097656 76.15484375 27.96960938 77.3253125 28.390625 78.53125 C28.73351562 79.5315625 29.07640625 80.531875 29.4296875 81.5625 C30.92811359 85.45315021 32.6459448 89.20698631 34.38769531 92.99365234 C36.8024893 98.31698098 39.05835484 103.70737448 41.328125 109.09375 C41.79669922 110.20041016 42.26527344 111.30707031 42.74804688 112.44726562 C44.84775323 117.41901787 46.92355307 122.39594832 48.91015625 127.4140625 C50.44760421 131.28642889 52.11471477 135.0734275 53.890625 138.84375 C54.85827847 140.90189377 55.81738626 142.96408955 56.765625 145.03125 C57.17554688 145.88074219 57.58546875 146.73023438 58.0078125 147.60546875 C59.40816602 152.08804369 57.53303299 155.88402288 55.62109375 159.98046875 C55.19119141 160.91181641 54.76128906 161.84316406 54.31835938 162.80273438 C53.86783203 163.76501953 53.41730469 164.72730469 52.953125 165.71875 C50.12760064 171.78885593 47.38906799 177.85309681 44.94262695 184.08618164 C43.41941366 187.89753239 41.82727463 191.67828565 40.234375 195.4609375 C39.58197722 197.01430023 38.92963439 198.56768603 38.27734375 200.12109375 C37.27246981 202.51311467 36.26633614 204.90456728 35.25634766 207.29443359 C31.74287896 215.61346492 28.29714828 223.87653556 25.6027832 232.50634766 C24.69232473 235.25232651 23.60228941 237.87712124 22.453125 240.53125 C16.32763512 255.00295116 11.7284036 270.09334802 6.890625 285.03125 C6.64374939 285.79302551 6.39687378 286.55480103 6.14251709 287.33966064 C5.43429016 289.52792672 4.72834554 291.7169128 4.0234375 293.90625 C3.81019836 294.56587738 3.59695923 295.22550476 3.3772583 295.90512085 C2.40759432 298.92740975 1.47978247 301.93753927 0.765625 305.03125 C-3.94428762 304.46103816 -8.21226352 303.53699834 -12.70703125 302.02734375 C-13.92567871 301.62040283 -15.14432617 301.21346191 -16.39990234 300.79418945 C-17.69904917 300.35283507 -18.99803677 299.91101172 -20.296875 299.46875 C-21.64269681 299.01443646 -22.98856316 298.56025488 -24.33447266 298.10620117 C-40.44231707 292.65416482 -56.49878559 287.14607892 -71.97412109 280.06201172 C-74.58215873 278.8726474 -77.19930009 277.70442665 -79.81640625 276.53515625 C-111.27738711 262.39759461 -142.10176108 245.83238831 -168.234375 223.03125 C-169.03359375 222.34160156 -169.8328125 221.65195312 -170.65625 220.94140625 C-189.32117462 204.50557294 -210.38139454 183.82262942 -214.234375 158.03125 C-215.47155886 137.64150828 -208.79448742 120.71593412 -195.32446289 105.5012207 C-193.96864881 104.00435841 -192.60167983 102.51762346 -191.234375 101.03125 C-190.45964844 100.13792969 -189.68492187 99.24460937 -188.88671875 98.32421875 C-171.81178443 78.71966453 -149.49295933 64.07144253 -127.14599609 51.13769531 C-125.85715028 50.39171202 -124.57106124 49.640948 -123.28759766 48.88574219 C-113.44857006 43.11332073 -103.31553573 38.0457351 -92.984375 33.21875 C-91.83686768 32.67959961 -90.68936035 32.14044922 -89.50708008 31.58496094 C-82.54220423 28.3747714 -75.56879168 25.61442645 -68.31396484 23.1394043 C-65.48403539 22.12108737 -62.81528447 20.9639217 -60.109375 19.65625 C-44.46429653 12.36732374 -27.46581131 7.84299927 -10.98486328 2.8815918 C-8.98767877 2.26414162 -7.00254004 1.60729706 -5.02587891 0.92700195 C-2.234375 0.03125 -2.234375 0.03125 0 0 Z " fill="#000000" transform="translate(305.234375,488.96875)"/>
<path d="M0 0 C10.30817305 0.94607861 20.59985123 3.40389381 30.75900269 5.34170532 C47.30283741 8.48875275 63.81966096 11.33661513 80.5222168 13.51635742 C83.11671113 13.87716425 85.69873502 14.26513526 88.28442383 14.6809082 C103.5791881 17.12028667 118.932151 18.50510389 134.35375977 19.87768555 C137.78454314 20.18507955 141.21452691 20.50045641 144.64453125 20.81640625 C145.68309769 20.90604141 146.72166412 20.99567657 147.79170227 21.08802795 C161.50240339 22.35612651 161.50240339 22.35612651 165.51953125 26.765625 C166.30267298 27.91447835 167.0661687 29.07689959 167.8125 30.25 C168.67410003 31.52629769 169.5360901 32.80233216 170.3984375 34.078125 C171.04570801 35.05749023 171.04570801 35.05749023 171.70605469 36.05664062 C173.72073728 39.0824658 175.82412326 42.04261492 177.9375 45 C178.34210449 45.56928223 178.74670898 46.13856445 179.16357422 46.72509766 C183.15400832 52.29916179 187.38335948 57.67694635 191.65234375 63.0390625 C192.42707031 64.01617188 193.20179688 64.99328125 194 66 C194.59941406 66.75023437 195.19882812 67.50046875 195.81640625 68.2734375 C197 70 197 70 197 72 C197.66 72 198.32 72 199 72 C200.21004675 73.51331661 201.34123831 75.08982964 202.4375 76.6875 C205.59189112 81.13907732 208.88770076 85.35815469 212.4375 89.5 C212.89930664 90.04011719 213.36111328 90.58023438 213.83691406 91.13671875 C214.76514519 92.22127672 215.69385278 93.3054271 216.62304688 94.38916016 C218.8312461 96.97244003 221.01484343 99.57416309 223.1875 102.1875 C223.92355469 103.06792969 224.65960937 103.94835937 225.41796875 104.85546875 C227 107 227 107 227 109 C227.66 109 228.32 109 229 109 C230.41015625 110.6171875 230.41015625 110.6171875 232.0625 112.875 C235.43283767 117.33842016 239.05212979 121.47569275 242.8203125 125.60546875 C245.26864404 128.29512329 247.65079979 131.03609195 250.02734375 133.7890625 C251.61543299 135.56898034 253.23027357 137.30057096 254.87890625 139.0234375 C255.38309082 139.55598145 255.88727539 140.08852539 256.40673828 140.63720703 C257.41122109 141.69551858 258.4237151 142.74629536 259.44482422 143.78857422 C262.34026732 146.85427789 263 147.59425546 263 152 C261.3125 154.11328125 261.3125 154.11328125 259 156.3125 C258.17242188 157.10398437 257.34484375 157.89546875 256.4921875 158.7109375 C253.74956529 161.23002311 250.97931158 163.70499126 248.15234375 166.12890625 C245.61947838 168.33079829 243.15667478 170.60195826 240.6875 172.875 C231.24133414 181.47659807 221.19072 189.30682676 211 197 C210.30374512 197.52754883 209.60749023 198.05509766 208.89013672 198.59863281 C182.78027735 218.32203083 154.99012696 235.79092343 125 249 C124.07928711 249.40589355 123.15857422 249.81178711 122.20996094 250.22998047 C95.25378315 261.89962892 60.22140412 272.8697143 31 263 C16.27751873 256.90092836 7.47658644 246.78251737 0 233 C-0.91072266 231.33904297 -0.91072266 231.33904297 -1.83984375 229.64453125 C-7.42440525 218.63426886 -10.241195 206.98355922 -13 195 C-13.17015625 194.27216309 -13.3403125 193.54432617 -13.515625 192.79443359 C-17.96948864 173.4287657 -18.37292619 154.15649906 -18.3125 134.375 C-18.31034485 133.10999664 -18.3081897 131.84499329 -18.30596924 130.54165649 C-17.99832073 17.99832073 -17.99832073 17.99832073 0 0 Z " fill="#000000" transform="translate(341,856)"/>
<path d="M0 0 C3.08036184 10.00064023 5.27709062 19.94890039 7.0625 30.25 C7.32291148 31.72704211 7.58373934 33.20401087 7.8449707 34.6809082 C8.34974463 37.54192673 8.84996989 40.40368441 9.34667969 43.26611328 C9.86198573 46.21121443 10.39384728 49.15139308 10.9453125 52.08984375 C21.97547777 112.05295189 25.93965781 192.02713199 -9.5 244.625 C-18.65295647 257.63101318 -30.28456648 264.85511475 -46 268 C-50.05314309 268.39134258 -54.05544028 268.43109033 -58.125 268.375 C-59.22537598 268.36267334 -60.32575195 268.35034668 -61.45947266 268.33764648 C-86.52727766 267.8260212 -110.67033849 259.04075107 -133 248 C-133.87543457 247.56848633 -134.75086914 247.13697266 -135.65283203 246.69238281 C-164.1543366 232.50825742 -190.16658696 214.85271824 -215 195 C-216.01449219 194.18917969 -217.02898438 193.37835937 -218.07421875 192.54296875 C-229.01923619 183.6751079 -239.62913229 174.4497222 -249.93359375 164.84765625 C-254.23594275 160.83948496 -258.61616547 156.91873245 -263 153 C-261.30706309 148.66650741 -258.10213932 145.73175677 -254.9375 142.4375 C-250.19827187 137.42220663 -245.70044705 132.31204197 -241.38671875 126.921875 C-238.44034081 123.31485258 -235.37936126 119.81705349 -232.3125 116.3125 C-228.58590451 112.04139842 -224.94696174 107.78095152 -221.625 103.18359375 C-219.31234712 100.07596644 -216.86871355 97.07777612 -214.4375 94.0625 C-203.70991157 80.70907909 -193.46129342 67.03195737 -183.50048828 53.09863281 C-182.09574577 51.13391322 -180.68720408 49.17198632 -179.27734375 47.2109375 C-177.72034683 45.0410832 -176.16462562 42.87032591 -174.609375 40.69921875 C-174.20283691 40.16586914 -173.79629883 39.63251953 -173.37744141 39.08300781 C-171.84935679 36.88971307 -171.84935679 36.88971307 -170.54052734 33.79980469 C-168.04228585 29.03073506 -165.91024622 25.07137228 -160.65625 23.13717651 C-153.58194133 21.53505081 -146.34732376 21.25276339 -139.125 20.875 C-136.965736 20.7245196 -134.80686318 20.56831163 -132.6484375 20.40625 C-129.46204989 20.16703936 -126.27605135 19.93091285 -123.08787537 19.71672058 C-114.2685134 19.10567684 -105.65119736 17.84131172 -96.94824219 16.32751465 C-94.27947153 15.87887357 -91.6024852 15.52397502 -88.91796875 15.18359375 C-72.06598519 13.00904959 -55.39175433 9.96810516 -38.6875 6.875 C-37.47371674 6.65117645 -36.25993347 6.42735291 -35.0093689 6.19674683 C-31.50928781 5.54976868 -28.01030442 4.8971995 -24.51171875 4.2421875 C-23.45545288 4.04644638 -22.39918701 3.85070526 -21.31091309 3.64903259 C-17.19904903 2.87213595 -13.15398791 2.10388643 -9.15551758 0.85986328 C-5.95658385 -0.01183069 -3.29796499 -0.16087634 0 0 Z " fill="#000000" transform="translate(940,854)"/>
<path d="M0 0 C1.27359375 0.23332031 2.5471875 0.46664062 3.859375 0.70703125 C28.06345583 5.34423555 50.21856059 15.85593022 72 27 C73.30855957 27.66684814 73.30855957 27.66684814 74.64355469 28.34716797 C92.42997608 37.52141152 108.91842 49.14427214 125 61 C125.60271729 61.44359863 126.20543457 61.88719727 126.82641602 62.34423828 C132.83880468 66.78863921 138.75571599 71.33908513 144.5703125 76.0390625 C146.20275172 77.35656168 147.84356525 78.6637457 149.4921875 79.9609375 C154.71571274 84.07792157 159.71688402 88.36818871 164.6328125 92.84765625 C166.7340413 94.75817947 168.85697199 96.63668448 171 98.5 C183.4872293 109.38499825 183.4872293 109.38499825 188 114 C186.60571103 118.336932 184.59877071 120.6973368 181.3125 123.8125 C176.9589777 128.04181339 172.92768556 132.37873504 169 137 C168.07356995 138.0747822 167.14642423 139.14894774 166.21875 140.22265625 C160.81259546 146.48956966 155.48477504 152.80693941 150.26953125 159.234375 C148.2122545 161.74134907 146.12342988 164.21543207 144.01757812 166.68139648 C137.80170031 173.96195043 131.85547023 181.42756108 126 189 C125.58927246 189.53061035 125.17854492 190.0612207 124.75537109 190.60791016 C122.29110601 193.79468228 119.83790095 196.98977986 117.38916016 200.18847656 C115.83969862 202.20903977 114.28511814 204.22561353 112.73046875 206.2421875 C105.85552717 215.14618195 105.85552717 215.14618195 99.25 224.25 C98.74895752 224.94657715 98.24791504 225.6431543 97.73168945 226.36083984 C95.9022238 229.02301965 95.9022238 229.02301965 94.45214844 232.21313477 C89.78192365 240.86988026 89.78192365 240.86988026 84.97814941 242.8213501 C79.76332309 244.0714797 74.43465699 244.3073174 69.09277344 244.5456543 C63.656234 244.79499353 58.23644615 245.26009024 52.8125 245.69921875 C51.64525391 245.78904022 50.47800781 245.87886169 49.27539062 245.97140503 C34.78526412 247.14763522 20.46311265 249.40344803 6.11108398 251.66830826 C4.03230471 251.99492431 1.95284722 252.31676574 -0.12695312 252.6368103 C-21.48250518 255.92514228 -42.82611263 259.48704532 -63.77929688 264.82995605 C-67.28711647 265.70261216 -70.39673711 266.06870303 -74 266 C-81.78817109 233.61870042 -88.24491853 201.23790949 -91 168 C-91.0942627 166.90059082 -91.18852539 165.80118164 -91.28564453 164.66845703 C-92.16368886 153.24445627 -92.24120736 141.82781219 -92.25 130.375 C-92.25133942 129.34141357 -92.25267883 128.30782715 -92.25405884 127.24291992 C-92.24931396 110.30665564 -91.49920964 93.77389244 -89 77 C-88.89848633 76.25669434 -88.79697266 75.51338867 -88.69238281 74.74755859 C-85.32745289 50.7384884 -75.34769551 22.82444361 -55.625 7.5625 C-50.3622773 3.97327908 -45.11932532 1.70730075 -39 0 C-38.23558594 -0.22429687 -37.47117187 -0.44859375 -36.68359375 -0.6796875 C-24.82965649 -3.60807132 -11.81412418 -2.51704862 0 0 Z " fill="#000000" transform="translate(415,161)"/>
<path d="M0 0 C0.86753906 0.25652344 1.73507812 0.51304687 2.62890625 0.77734375 C19.65990271 6.29642883 29.08902406 18.59377798 37 34 C37.598125 35.14597656 38.19625 36.29195312 38.8125 37.47265625 C48.56989512 57.29278729 52.05993788 80.2001548 54 102 C54.06912598 102.72026367 54.13825195 103.44052734 54.20947266 104.18261719 C58.74455139 153.12317658 51.70025794 203.11146712 41.6875 250.9375 C41.51692078 251.75985138 41.34634155 252.58220276 41.17059326 253.42947388 C40.69177614 255.71480581 40.19915497 257.99654927 39.69921875 260.27734375 C39.41908936 261.55859131 39.13895996 262.83983887 38.8503418 264.15991211 C38.569729 265.09714111 38.28911621 266.03437012 38 267 C34.90596123 268.54701939 32.52815517 267.45184723 29.1875 266.75 C27.96417969 266.49734375 26.74085938 266.2446875 25.48046875 265.984375 C23.11627155 265.47650036 20.76288876 264.94268525 18.41235352 264.37451172 C7.21388541 261.68599244 -4.10689546 259.66885763 -15.4375 257.625 C-17.07916641 257.32769485 -17.07916641 257.32769485 -18.7539978 257.02438354 C-37.18661289 253.70125015 -55.63889592 250.94413372 -74.23516846 248.72714233 C-78.37907022 248.22670573 -82.48601832 247.60343226 -86.6015625 246.91015625 C-91.22692411 246.16813305 -95.72793839 245.84538849 -100.41015625 245.7109375 C-121.78206206 244.93350209 -121.78206206 244.93350209 -127.26171875 239.73828125 C-129.94699319 236.46132231 -131.9744246 232.8862527 -133.88476562 229.11474609 C-135.61014211 225.84302737 -137.796725 222.96097202 -140 220 C-140.81984748 218.85048099 -141.63754072 217.69942266 -142.453125 216.546875 C-154.13173334 200.20411106 -166.40721614 184.18531068 -179.48828125 168.94140625 C-181.86533043 166.15770791 -184.19101567 163.34025507 -186.5 160.5 C-190.24453754 155.89956817 -194.0606109 151.36573125 -197.90527344 146.84912109 C-200.90681529 143.31572709 -203.84152672 139.73585969 -206.75 136.125 C-209.77522647 132.40413322 -212.91080355 128.96442905 -216.359375 125.63671875 C-219.09047041 122.91212595 -221.52546904 119.95736626 -224 117 C-220.87433683 109.8804339 -213.97459694 104.87953643 -208.1875 99.90625 C-205.64488601 97.69054352 -203.16889802 95.40901408 -200.6875 93.125 C-196.25368689 89.08597847 -191.71945416 85.22493122 -187.05078125 81.4609375 C-184.82711326 79.66719764 -182.61801522 77.86127617 -180.41796875 76.0390625 C-151.77658433 52.38937912 -120.65122264 31.83562683 -87 16 C-86.17902832 15.6088501 -85.35805664 15.2177002 -84.51220703 14.81469727 C-77.92776564 11.73847536 -71.2772738 9.20402774 -64.375 6.9375 C-63.334646 6.59388428 -62.29429199 6.25026855 -61.22241211 5.89624023 C-42.36659433 -0.22163152 -19.61025168 -6.39067792 0 0 Z " fill="#000000" transform="translate(900,160)"/>
<path d="M0 0 C9.31579052 1.55263175 18.08041007 4.48667209 27 7.5 C28.18619934 7.89800308 28.18619934 7.89800308 29.3963623 8.30404663 C43.75936441 13.12855798 57.96289002 18.28749742 72 24 C72.72880371 24.29648437 73.45760742 24.59296875 74.20849609 24.8984375 C78.8613158 26.8157142 83.43829681 28.87598684 88 31 C88.96454102 31.44682129 89.92908203 31.89364258 90.92285156 32.35400391 C125.81132722 48.59990301 159.5102113 67.66572758 187 95 C187.48549316 95.48146484 187.97098633 95.96292969 188.47119141 96.45898438 C197.93648023 105.97828793 205.4172379 116.7608677 211 129 C211.28488281 129.61359375 211.56976562 130.2271875 211.86328125 130.859375 C217.37265184 143.07921118 216.05897382 156.33372848 211.47265625 168.546875 C208.06347084 176.54082699 203.72522099 183.59216151 198.75 190.6875 C198.09511597 191.62541382 198.09511597 191.62541382 197.42700195 192.58227539 C196.33749886 194.09435564 195.17452398 195.55296956 194 197 C193.34 197 192.68 197 192 197 C191.6596875 197.804375 191.6596875 197.804375 191.3125 198.625 C188.25321627 204.16084676 183.90287667 208.12005483 179.140625 212.16796875 C177.75454037 213.35423461 176.38817453 214.56410309 175.046875 215.80078125 C153.33550269 235.81336297 127.0701325 250.52268853 101 264 C100.18080078 264.42812988 99.36160156 264.85625977 98.51757812 265.29736328 C90.9054676 269.27011914 83.27274537 272.82151987 75.203125 275.79296875 C71.79577379 277.07695841 68.4652737 278.48830053 65.125 279.9375 C54.56357569 284.49731582 44.08248803 288.88272802 33 292.04296875 C29.90523548 292.97552064 29.90523548 292.97552064 26.66796875 294.44140625 C22.60697237 296.16700535 18.53732348 297.49627714 14.3125 298.75 C13.56677734 298.98332031 12.82105469 299.21664063 12.05273438 299.45703125 C5.3453347 301.45548931 5.3453347 301.45548931 2 300 C1.07446289 298.25683594 1.07446289 298.25683594 0.47265625 295.984375 C0.24054443 295.15188232 0.00843262 294.31938965 -0.23071289 293.46166992 C-0.58057251 292.11939331 -0.58057251 292.11939331 -0.9375 290.75 C-1.45182876 288.90645946 -1.97006282 287.06400402 -2.4921875 285.22265625 C-2.87262207 283.87324951 -2.87262207 283.87324951 -3.26074219 282.49658203 C-4.51131101 278.27322774 -6.14641389 274.22439191 -7.78515625 270.140625 C-9.58441022 265.48917743 -11.08372305 260.7472857 -12.59375 255.99609375 C-14.05541492 251.64592772 -15.8788469 247.45329676 -17.66210938 243.22729492 C-20.34583796 236.75353432 -22.77727193 230.1796399 -25.25 223.62304688 C-27.53920225 217.61031409 -29.97302635 211.72054646 -32.67822266 205.88354492 C-35.5819128 199.54895232 -38.2829712 193.12245909 -41.03253174 186.71972656 C-43.9677602 179.89017041 -46.92693045 173.08423437 -50.10546875 166.36328125 C-50.57509033 165.36530518 -51.04471191 164.3673291 -51.52856445 163.33911133 C-52.40299302 161.49527999 -53.29017123 159.65742173 -54.19213867 157.8269043 C-54.57990479 157.00746338 -54.9676709 156.18802246 -55.3671875 155.34375 C-55.87934814 154.29477539 -55.87934814 154.29477539 -56.40185547 153.22460938 C-57.72984086 148.28558779 -55.68134448 143.81742691 -53.671875 139.33203125 C-53.20136719 138.27306641 -52.73085938 137.21410156 -52.24609375 136.12304688 C-51.75238281 135.03056641 -51.25867188 133.93808594 -50.75 132.8125 C-50.03263672 131.2027832 -50.03263672 131.2027832 -49.30078125 129.56054688 C-47.87613931 126.36958059 -46.44052085 123.18382635 -45 120 C-44.31248657 118.48031616 -44.31248657 118.48031616 -43.61108398 116.92993164 C-41.62206179 112.54406217 -39.6127145 108.17012747 -37.5625 103.8125 C-34.67055146 97.4448245 -32.28617785 90.90107239 -29.86962891 84.34375 C-28.23103593 79.92755331 -26.5517526 75.52681734 -24.875 71.125 C-24.38809692 69.84230225 -24.38809692 69.84230225 -23.89135742 68.53369141 C-22.26300013 64.25672149 -20.60193458 59.99685038 -18.88671875 55.75390625 C-17.43517888 52.1427238 -16.11956757 48.52245234 -14.9375 44.8125 C-13.97499971 41.79281024 -12.96343626 38.91829451 -11.66796875 36.0234375 C-9.3609478 30.74269768 -7.72494791 25.21520511 -5.98339844 19.72875977 C-5.37281259 17.80561036 -4.75714839 15.88414388 -4.140625 13.96289062 C-1.88651163 7.03388704 -1.88651163 7.03388704 0 0 Z " fill="#000000" transform="translate(972,490)"/>
<path d="M0 0 C1.29550781 1.04800781 1.29550781 1.04800781 2.6171875 2.1171875 C16.55359742 13.96964827 27.10850824 30.72236095 33 48 C33.32871094 48.92683594 33.65742187 49.85367188 33.99609375 50.80859375 C39.94757027 69.72826812 39.92978559 90.88100545 35 110 C34.74476563 111.00546875 34.48953125 112.0109375 34.2265625 113.046875 C26.05545318 140.7836681 6.36520533 162.52377516 -18.1640625 176.84765625 C-25.77956236 180.86067572 -33.76960126 183.57979933 -42 186 C-43.04027344 186.32226562 -44.08054687 186.64453125 -45.15234375 186.9765625 C-53.13403707 189.08791277 -60.9011161 189.27710475 -69.125 189.3125 C-70.20950439 189.31805908 -71.29400879 189.32361816 -72.41137695 189.3293457 C-82.9571291 189.23583657 -92.9554419 187.73576477 -102.9375 184.3125 C-103.70328369 184.05194824 -104.46906738 183.79139648 -105.25805664 183.52294922 C-133.51186381 173.558661 -154.53334951 151.92866196 -167.3125 125.375 C-178.21027043 100.65124936 -179.70304806 71.32333348 -170.3125 45.8125 C-165.37924416 33.23914987 -159.19991249 21.97580872 -150 12 C-149.49726562 11.44957031 -148.99453125 10.89914062 -148.4765625 10.33203125 C-109.34601037 -32.07500252 -44.76420182 -36.78395414 0 0 Z " fill="#888888" transform="translate(708,557)"/>
<path d="M0 0 C2.73309583 3.48024593 4.23181246 6.78765089 5.8125 10.9375 C7.74884616 15.94796347 9.81030835 20.83543751 12.125 25.6875 C14.49838399 30.7301704 16.33500881 35.77652158 18.0234375 41.08203125 C18.95829681 43.87539086 20.02608294 46.54397726 21.1875 49.25 C27.09008726 63.14378233 32.21014525 77.39720147 37.0625 91.6875 C37.36140137 92.55366943 37.66030273 93.41983887 37.96826172 94.31225586 C38.37262451 95.52473999 38.37262451 95.52473999 38.78515625 96.76171875 C39.02113525 97.46256592 39.25711426 98.16341309 39.50024414 98.88549805 C40.07369448 101.31180648 40.08439958 103.5155042 40 106 C20.83920275 110.08011439 1.69088166 113.8664308 -17.65625 116.95703125 C-21.49276438 117.57090761 -25.29864365 118.24398907 -29.1015625 119.0390625 C-34.65537241 120.18246074 -40.24947219 120.87388293 -45.875 121.5625 C-47.89349984 121.81161865 -49.91174212 122.06283548 -51.9296875 122.31640625 C-52.80866699 122.42412354 -53.68764648 122.53184082 -54.59326172 122.64282227 C-56.78336058 122.96784911 -58.85570924 123.46123062 -61 124 C-62.74886981 124.06624507 -64.50002748 124.08552595 -66.25 124.0625 C-67.58804688 124.04896484 -67.58804688 124.04896484 -68.953125 124.03515625 C-69.62859375 124.02355469 -70.3040625 124.01195312 -71 124 C-67.65433524 117.58067575 -64.04601195 111.37060253 -60.1875 105.25 C-41.44838927 75.50571158 -24.38665509 44.70098128 -7.62109375 13.8125 C-5.11109525 9.19133156 -2.56289997 4.59200687 0 0 Z " fill="#010101" transform="translate(885,699)"/>
<path d="M0 0 C3.10344291 2.65262699 4.75111236 5.98538881 6.58984375 9.5546875 C6.93025696 10.20365997 7.27067017 10.85263245 7.62139893 11.52127075 C8.35138182 12.91326234 9.07910463 14.30644106 9.80477905 15.70068359 C11.71516453 19.36776726 13.64614018 23.02394845 15.578125 26.6796875 C16.15224373 27.76657867 16.15224373 27.76657867 16.73796082 28.87542725 C21.13044595 37.16876796 25.7640707 45.31444484 30.49462891 53.41894531 C32.12241718 56.20989206 33.73924009 59.00703208 35.35546875 61.8046875 C45.7353213 79.73312835 56.26210894 97.59298055 67.71362305 114.86303711 C69.49161486 117.56050372 70.97310748 119.91932244 72 123 C66.01548433 123.10602488 60.40526663 122.79785286 54.5 121.875 C52.66672005 121.59990439 50.83338086 121.32520352 49 121.05078125 C47.93265625 120.88916504 46.8653125 120.72754883 45.765625 120.56103516 C41.26304904 119.89020272 36.75677059 119.24739759 32.25 118.60546875 C-4.29020802 113.38438085 -4.29020802 113.38438085 -20 110 C-20.85174805 109.81663086 -21.70349609 109.63326172 -22.58105469 109.44433594 C-27.72815053 108.32803001 -32.86676623 107.17832472 -38 106 C-36.61775457 97.32804023 -33.88533168 89.15977244 -31.0625 80.875 C-30.61470744 79.5431458 -30.16743876 78.21111534 -29.72070312 76.87890625 C-27.58861713 70.5423453 -25.38411957 64.24611443 -23 58 C-21.78300741 54.58936873 -20.57977621 51.17414881 -19.37890625 47.7578125 C-18.06599623 44.11684571 -16.63133905 40.52940433 -15.18432617 36.93994141 C-14.05931773 34.14724884 -12.94364815 31.35095471 -11.83100891 28.55331421 C-10.7826241 25.91756719 -9.73187014 23.28276691 -8.68115234 20.64794922 C-8.13953253 19.28881483 -7.59852607 17.92943588 -7.05810547 16.56982422 C-6.26692854 14.5797502 -5.47352453 12.59057664 -4.6796875 10.6015625 C-4.21288574 9.42932129 -3.74608398 8.25708008 -3.26513672 7.04931641 C-2.26337174 4.63479604 -1.21302879 2.31293643 0 0 Z " fill="#010101" transform="translate(393,701)"/>
<path d="M0 0 C46.86 0 93.72 0 142 0 C134.17022743 12.30392833 134.17022743 12.30392833 130.6875 16.375 C127.40732342 20.287901 124.22240449 24.25397925 121.125 28.3125 C120.28141472 29.41418865 119.43766268 30.51574962 118.59375 31.6171875 C118.16835938 32.17245117 117.74296875 32.72771484 117.3046875 33.29980469 C109.97711927 42.84867916 102.42437372 52.13863179 94.53369141 61.22802734 C92.44181617 63.6449058 90.36722994 66.07636947 88.29174805 68.50732422 C83.26059298 74.39811766 78.18100916 80.23993687 73 86 C68.89647218 84.41278641 66.36775377 81.44859429 63.5 78.25 C62.97736572 77.67507813 62.45473145 77.10015625 61.91625977 76.5078125 C56.65082736 70.68202648 51.53777446 64.7262134 46.46582031 58.73193359 C45.0194552 57.0229872 43.56882838 55.31774711 42.1171875 53.61328125 C36.32920934 46.80807669 30.63570559 39.93209794 25 33 C23.95604316 31.72630508 22.91175016 30.45288564 21.8671875 29.1796875 C3.64086493 6.92259479 3.64086493 6.92259479 2 2 C1.34 2 0.68 2 0 2 C0 1.34 0 0.68 0 0 Z " fill="#010101" transform="translate(569,883)"/>
<path d="M0 0 C3.2630121 1.0876707 3.87839928 1.75066713 6 4.3125 C8.98901406 7.84782545 12.08431242 11.24675911 15.25 14.625 C19.76948167 19.49081701 23.88751717 24.58606873 27.93554688 29.84692383 C31.64328202 34.63342955 35.62384912 39.05615494 39.73828125 43.5 C42.3542268 46.39154603 44.74164629 49.39561041 47.09765625 52.5 C49.02011903 55.0264398 50.98050686 57.5190214 52.94970703 60.0090332 C57.03481539 65.17804578 61.08726716 70.37090047 65.0625 75.625 C65.77535156 76.56601562 66.48820313 77.50703125 67.22265625 78.4765625 C68.73102304 80.61811183 69.86751922 82.65292503 71 85 C70.16118286 84.97036163 69.32236572 84.94072327 68.45812988 84.91018677 C47.33899214 84.18208214 26.24517193 83.83797832 5.11376953 83.86962891 C1.2695938 83.87532534 -2.57451255 83.8719344 -6.41868591 83.86617661 C-27.62920898 83.83952175 -48.80285481 84.25103013 -70 85 C-64.76003043 74.25206781 -56.07342631 65.03900619 -48.52050781 55.85253906 C-47.20319817 54.24757028 -45.89383387 52.63608643 -44.5859375 51.0234375 C-39.96373941 45.32552786 -35.22668742 39.73724877 -30.43237305 34.18432617 C-27.46478121 30.73928804 -24.58039391 27.24709844 -21.75 23.6875 C-15.02103498 15.3759821 -7.55990896 7.55990896 0 0 Z " fill="#010101" transform="translate(639,313)"/>
<path d="M0 0 C15.70195446 1.6588725 31.25908356 3.7047858 46.80859375 6.4453125 C50.20268967 7.0352288 53.60059897 7.59775038 57 8.15625 C100.84811032 15.42405516 100.84811032 15.42405516 108 19 C107.2458838 23.46217134 105.86336484 27.66617253 104.41796875 31.94140625 C104.16251785 32.70492905 103.90706696 33.46845184 103.64387512 34.25511169 C102.8279086 36.69186576 102.0077939 39.1271997 101.1875 41.5625 C100.64750754 43.17243252 100.1077914 44.78245774 99.56835938 46.39257812 C98.52434527 49.50801648 97.4780309 52.62266805 96.43017578 55.73681641 C94.89183949 60.31309615 93.37954851 64.89786732 91.87719727 69.48608398 C90.57300844 73.22369387 89.02793566 76.84778902 87.4765625 80.48828125 C85.63590456 84.86593069 83.88026891 89.2750652 82.125 93.6875 C78.48624738 102.82080377 74.76458967 111.91792741 71 121 C68 120 68 120 66.76416016 118.14013672 C66.35987793 117.32818848 65.9555957 116.51624023 65.5390625 115.6796875 C65.07459717 114.76405029 64.61013184 113.84841309 64.1315918 112.9050293 C63.38582886 111.40516479 63.38582886 111.40516479 62.625 109.875 C56.95022481 98.73607592 50.93987796 87.83649544 44.71826172 76.99511719 C42.95365509 73.91921579 41.19743618 70.83861698 39.44140625 67.7578125 C27.86530949 47.50928606 16.13071546 27.20448149 3.04589844 7.88256836 C0 3.31552372 0 3.31552372 0 0 Z " fill="#010101" transform="translate(815,458)"/>
<path d="M0 0 C-4.09014464 7.31199042 -8.27896574 14.5384107 -12.75 21.625 C-22.41599927 36.9650907 -31.5566623 52.59747385 -40.5 68.36767578 C-41.98849093 70.97980293 -43.4917024 73.58286055 -45 76.18359375 C-50.93698882 86.44400746 -56.60498265 96.80168556 -61.9921875 107.36279297 C-64.42820706 112.11454521 -66.91350179 116.63959333 -70 121 C-72.52121779 117.92573498 -74.01119434 114.91368191 -75.48828125 111.23046875 C-75.94420654 110.1022168 -76.40013184 108.97396484 -76.86987305 107.81152344 C-77.34593994 106.6155957 -77.82200684 105.41966797 -78.3125 104.1875 C-78.8104979 102.94675703 -79.30895384 101.70619781 -79.80786133 100.46582031 C-80.78077624 98.04307457 -81.75146853 95.61943486 -82.71972656 93.19482422 C-83.7243901 90.68776339 -84.74022711 88.18676589 -85.7734375 85.69140625 C-89.92879591 75.57850361 -93.44696551 65.25776626 -96.99316406 54.91894531 C-97.97070673 52.08492491 -98.96239724 49.25637095 -99.9609375 46.4296875 C-100.27297119 45.54563232 -100.58500488 44.66157715 -100.90649414 43.75073242 C-101.48745153 42.10711302 -102.06984259 40.46399925 -102.65405273 38.8215332 C-104.07314343 34.7946638 -105.42569955 30.75119172 -106.69921875 26.67578125 C-106.94889404 25.87696533 -107.19856934 25.07814941 -107.45581055 24.25512695 C-108 22 -108 22 -108 18 C-89.62557405 13.37977934 -71.01095247 10.32650273 -52.33351135 7.2303772 C-46.88286175 6.32445816 -41.44225547 5.37127686 -36.00390625 4.39453125 C-29.27256553 3.19196594 -22.53369025 2.17101682 -15.75 1.3125 C-14.28240234 1.11817383 -14.28240234 1.11817383 -12.78515625 0.91992188 C-8.4828372 0.36525728 -4.34435704 -0.06821318 0 0 Z " fill="#010101" transform="translate(464,458)"/>
</svg>
